<svg id="Calque_1" data-name="Calque 1" xmlns="http://www.w3.org/2000/svg" viewBox="0 0 86.38 82.83"><defs><style>.cls-1{fill:#fff;fill-rule:evenodd;}</style></defs><path class="cls-1" d="M72.49,22.92,56.29,6.72a1.84,1.84,0,0,1-.4-2,1.75,1.75,0,0,1,1.7-1.1h16.2a1.79,1.79,0,0,1,1.8,1.8V21.63a1.79,1.79,0,0,1-1.8,1.8A2.06,2.06,0,0,1,72.49,22.92Zm-61.7,18.9,32.4-32.4,32.4,32.4v41H50.39V57.62H36V82.83H10.79Zm75.1.2a1.85,1.85,0,0,1,0,2.5h0a1.73,1.73,0,0,1-2.5,0h0L43.19,4.33,3.09,44.52h0a1.87,1.87,0,0,1-2.6-.09,1.85,1.85,0,0,1,0-2.5L41.89.52a1.77,1.77,0,0,1,2.5,0L85.89,42Z"/></svg>