<svg id="Calque_1" data-name="Calque 1" xmlns="http://www.w3.org/2000/svg" viewBox="0 0 63.4 65.3"><defs><style>.cls-1{fill:#fff;}</style></defs><path class="cls-1" d="M62.4,59.3H52.8a3.58,3.58,0,0,0,.4-1.1l3.1-22.4a4.28,4.28,0,0,0-.8-2.9,3.57,3.57,0,0,0-2.7-1.2H10.7A4,4,0,0,0,8,32.9a3.36,3.36,0,0,0-.8,2.9l3.1,22.4a3.58,3.58,0,0,0,.4,1.1H1a1,1,0,0,0-1,1v4a1,1,0,0,0,1,1H62.4a1.08,1.08,0,0,0,1-1v-4A1,1,0,0,0,62.4,59.3ZM31.7,50.7c-3,0-5.3-1.9-5.3-4.2s2.4-4.2,5.3-4.2S37,44.2,37,46.5,34.6,50.7,31.7,50.7Z"/><path class="cls-1" d="M40.9,23.6a1.23,1.23,0,0,0-1,.2,12,12,0,0,1-16.4.1,1,1,0,0,0-1-.2,29.09,29.09,0,0,0-10.1,6.1H51A27.09,27.09,0,0,0,40.9,23.6Z"/><circle class="cls-1" cx="31.7" cy="11.7" r="11.7"/></svg>