<svg id="Calque_1" data-name="Calque 1" xmlns="http://www.w3.org/2000/svg" viewBox="0 0 95.3 94.93"><defs><style>.cls-1{fill:#fff;}</style></defs><path class="cls-1" d="M20.5,20a3.69,3.69,0,0,1,3.7,3.7,3.63,3.63,0,0,1-3.7,3.7,3.7,3.7,0,1,1,0-7.4Zm12.2,7.3a3.69,3.69,0,0,0,3.7-3.7A3.61,3.61,0,0,0,32.7,20,3.69,3.69,0,0,0,29,23.7,3.61,3.61,0,0,0,32.7,27.3Zm15.9-3.6A3.69,3.69,0,0,0,44.9,20a3.7,3.7,0,1,0,0,7.4A3.69,3.69,0,0,0,48.6,23.7ZM7.5,46.8v8.3a3.63,3.63,0,0,0,1.1,2.6,3.58,3.58,0,0,0,2.4.9h0a4,4,0,0,0,2.5-1l7.9-7.9V40.5l-7.3,7.3V40.5H9.5a2.8,2.8,0,0,1-2.8-2.8V9.4A2.8,2.8,0,0,1,9.5,6.6H56.1a2.8,2.8,0,0,1,2.8,2.8V29.5h6.5V9.4A9.39,9.39,0,0,0,56,0H9.4A9.39,9.39,0,0,0,0,9.4V37.7A9.4,9.4,0,0,0,7.5,46.8ZM88.3,35.9a7,7,0,0,1,7,7V75.6a7,7,0,0,1-7,7H86.7V93.9a1,1,0,0,1-1.8.7L73,82.6H34.4a7,7,0,0,1-7-7V42.9a7,7,0,0,1,7-7ZM58.7,49.6a3.6,3.6,0,1,0,7.2.1A3.74,3.74,0,0,0,62.3,46,3.59,3.59,0,0,0,58.7,49.6Zm7.9,20.1a9.29,9.29,0,0,0-1,.5,6.11,6.11,0,0,1-1.3.3.92.92,0,0,1-1.1-.8,2.46,2.46,0,0,1-.1-1.2c.1-.9.3-1.7.4-2.6.5-2.6,1-5.1,1.4-7.7a14.92,14.92,0,0,0,.2-2.1c0-.8-.5-1.2-1.4-1.2H56.9a2,2,0,0,0-.8.1c-.5.1-.8.3-.8.7a1,1,0,0,0,.6.9,5,5,0,0,0,1.2.2c.9.1,1.2.5,1.2,1.4v.4c-.4,2.3-.8,4.5-1.2,6.8l-.6,3.9c-.3,1.9,1.6,3.7,3,3.9a11.54,11.54,0,0,0,2.6.1,6.66,6.66,0,0,0,4.8-2.1,2.62,2.62,0,0,0,.5-.9C67.6,69.8,67.2,69.5,66.6,69.7Z"/></svg>