<svg id="Calque_1" data-name="Calque 1" xmlns="http://www.w3.org/2000/svg" viewBox="0 0 11.76 56.92"><defs><style>.cls-1{fill:#ccc;}</style></defs><path class="cls-1" d="M0,27.79H.63c3.78,0,4.34-2,4.34-6,0-4.55-.21-8.47-.21-13.23C4.76.91,8,0,11.48,0h.28V1.19h-.14C8.54,1.19,6,1.61,6,8.4c0,4.48.21,8.82.21,13.16,0,4.62-.7,6.3-3.15,6.86,2,.84,3.15,1.68,3.15,6.93C6.16,38.92,6,45.44,6,50c0,5.6,3.15,5.74,5.53,5.74h.28v1.19h-.28c-3.36,0-6.72-.49-6.72-7.35,0-4.69.21-10.86.21-14.5s-.63-6-4.34-6H0Z"/></svg>